<svg width="121" height="84" fill="none" version="1.1" viewBox="0 0 121 84" xmlns="http://www.w3.org/2000/svg" xmlns:xlink="http://www.w3.org/1999/xlink">
 <path d="m55.311 0c-4.7678 0-8.6329 3.8737-8.6329 8.6521v14.057c0 2.8423 1.3676 5.3645 3.4792 6.9418l-2.9751 5.404 9.3683-3.6937h19.796c4.7678 0 8.6329-3.8737 8.6329-8.6521v-14.057c0-4.7784-3.8651-8.6521-8.6329-8.6521h-21.035z" clip-rule="evenodd" fill="url(#paint0_linear)" fill-rule="evenodd"/>
 <g fill="#fff">
  <circle cx="58.103" cy="14.747" r="3.0724"/>
  <circle cx="73.465" cy="14.747" r="3.0724"/>
  <circle cx="66.091" cy="14.747" r="3.0724"/>
 </g>
 <path d="m90.985 48.945c-4.7678 0-8.6328 3.8737-8.6328 8.6521v14.057c0 2.8423 1.3675 5.3645 3.4791 6.9418l-2.9751 5.404 9.3683-3.6937h19.796c4.768 0 8.633-3.8737 8.633-8.6521v-14.057c0-4.7784-3.865-8.6521-8.633-8.6521h-21.035z" clip-rule="evenodd" fill="url(#paint2_linear)" fill-rule="evenodd"/>
 <path d="m101.36 56.369c0.078-0.2393 0.416-0.2393 0.494 0l1.626 5.0045c0.035 0.107 0.134 0.1795 0.247 0.1795h5.262c0.252 0 0.356 0.3221 0.153 0.47l-4.257 3.0929c-0.091 0.0662-0.129 0.1834-0.095 0.2905l1.626 5.0045c0.078 0.2393-0.196 0.4383-0.399 0.2904l-4.257-3.0929c-0.092-0.0662-0.215-0.0662-0.306 0l-4.2569 3.0929c-0.2036 0.1479-0.4776-0.0511-0.3998-0.2904l1.626-5.0045c0.0348-0.107-0.0033-0.2243-0.0943-0.2905l-4.2571-3.0929c-0.2036-0.1479-0.099-0.47 0.1527-0.47h5.262c0.1126 0 0.2123-0.0725 0.2471-0.1795l1.6263-5.0045z" fill="#fff"/>
 <defs>
  <linearGradient id="paint0_linear" x1="104.64" x2="51.392" y1="-41.407" y2="40.662" gradientUnits="userSpaceOnUse">
   <stop stop-color="#28F307" offset="0"/>
   <stop stop-color="#00C2FF" offset="1"/>
  </linearGradient>
  <linearGradient id="paint2_linear" x1="115.02" x2="61.567" y1="74.756" y2="60.594" gradientUnits="userSpaceOnUse">
   <stop stop-color="#FF8181" offset=".046875"/>
   <stop stop-color="#E22121" offset=".95794"/>
  </linearGradient>
  <linearGradient id="linearGradient1264" x1="28.643" x2="3.9696" y1="46.691" y2="87.422" gradientUnits="userSpaceOnUse">
   <stop stop-color="#FFC780" offset="0"/>
   <stop stop-color="#FF9820" offset="1"/>
  </linearGradient>
 </defs>
 <path d="m8.6329 46.614c-4.7678 0-8.6329 3.9454-8.6329 8.8124v14.317c0 2.895 1.3675 5.4639 3.4791 7.0704l-2.9751 5.5041 9.3683-3.7621h19.796c4.7679 0 8.6329-3.9454 8.6329-8.8124v-14.317c0-4.8669-3.8651-8.8124-8.6329-8.8124z" clip-rule="evenodd" fill="url(#linearGradient1264)" fill-rule="evenodd" stroke-width=".98268"/>
 <path d="m19.077 57.079c-0.45166 2.366-1.1634 3.1507-2.8616 4.0538v6.2c0.30258 0.718 0.64238 0.89182 1.4308 0.95389h6.6768s0.71446-0.48466 0.95389-0.95389c0.17442-0.34196 0.23845-0.95379 0.23845-0.95379s0.58158-0.66604 0.71534-1.1923c0.11471-0.45126 0-1.1922 0-1.1922s0.40982-0.38645 0.4769-0.71544c0.0767-0.37623-0.23845-0.95379-0.23845-0.95379s0.16194-0.1313 0.23845-0.23845c0.27066-0.37888 0-1.1923 0-1.1923s-0.61183-1.1922-1.6691-1.1922h-3.3385s0.42436-1.4674 0.23845-2.3847c-0.19042-0.93964-1.1923-2.1461-1.1923-2.1461-0.69934-0.68618-1.0744-0.82658-1.6691 0z" fill="#fff" stroke-width=".98208"/>
 <rect x="10.969" y="60.326" width="4.2923" height="7.6307" rx=".47692" fill="#fff" stroke-width=".98208"/>
</svg>
