<svg width="22" height="22" viewBox="0 0 22 22" fill="none" xmlns="http://www.w3.org/2000/svg">
<path fill-rule="evenodd" clip-rule="evenodd" d="M11 20.1429C5.95072 20.1429 1.85863 16.0493 1.85863 11.0015C1.85863 5.95227 5.95072 1.85863 11 1.85863C16.0493 1.85863 20.1414 5.95227 20.1414 11.0015C20.1414 16.0493 16.0493 20.1429 11 20.1429ZM11 0C17.0746 0 22 4.92537 22 11.0015C22 17.0762 17.0746 22 11 22C4.92537 22 0 17.0762 0 11.0015C0 4.92537 4.92537 0 11 0ZM11 3.71804C10.4858 3.71804 10.0707 4.13468 10.0707 4.6489V10.9868C10.0707 10.9884 10.0707 10.9899 10.0707 10.9915C10.0691 11.2331 10.1574 11.4747 10.3417 11.659L14.8334 16.1492C15.0146 16.3319 15.2516 16.4218 15.4901 16.4218C15.7271 16.4218 15.9656 16.3319 16.1469 16.1492C16.5093 15.7867 16.5093 15.1982 16.1469 14.8358L11.9293 10.6182V4.6489C11.9293 4.13468 11.5142 3.71804 11 3.71804Z" fill="#FFC780"/>
</svg>
